solid Default
  facet normal -9.396927e-01 0.000000e+00 -3.420199e-01
    outer loop
      vertex -3.704045e+01 2.138531e+01 0.000000e+00
      vertex -3.704045e+01 -2.138531e+01 0.000000e+00
      vertex -3.944864e+01 2.277568e+01 6.616450e+00
    endloop
  endfacet
  facet normal -9.396927e-01 0.000000e+00 -3.420199e-01
    outer loop
      vertex -3.944864e+01 2.277568e+01 6.616450e+00
      vertex -3.704045e+01 -2.138531e+01 0.000000e+00
      vertex -3.944864e+01 -2.277568e+01 6.616450e+00
    endloop
  endfacet
  facet normal -9.396927e-01 0.000000e+00 -3.420199e-01
    outer loop
      vertex -3.944864e+01 2.277568e+01 6.616450e+00
      vertex -3.944864e+01 -2.277568e+01 6.616450e+00
      vertex -4.555136e+01 0.000000e+00 2.338355e+01
    endloop
  endfacet
  facet normal -8.137980e-01 4.698460e-01 3.420200e-01
    outer loop
      vertex -2.138531e+01 3.704045e+01 3.000000e+01
      vertex -2.277568e+01 3.944864e+01 2.338355e+01
      vertex -4.277062e+01 0.000000e+00 3.000000e+01
    endloop
  endfacet
  facet normal -8.137980e-01 4.698460e-01 3.420200e-01
    outer loop
      vertex -4.277062e+01 0.000000e+00 3.000000e+01
      vertex -2.277568e+01 3.944864e+01 2.338355e+01
      vertex -3.944864e+01 2.277568e+01 6.616450e+00
    endloop
  endfacet
  facet normal -8.137980e-01 4.698460e-01 3.420200e-01
    outer loop
      vertex -4.277062e+01 0.000000e+00 3.000000e+01
      vertex -3.944864e+01 2.277568e+01 6.616450e+00
      vertex -4.555136e+01 0.000000e+00 2.338355e+01
    endloop
  endfacet
  facet normal -8.137980e-01 -4.698460e-01 3.420200e-01
    outer loop
      vertex -2.277568e+01 -3.944864e+01 2.338355e+01
      vertex -2.138531e+01 -3.704045e+01 3.000000e+01
      vertex -3.944864e+01 -2.277568e+01 6.616450e+00
    endloop
  endfacet
  facet normal -8.137980e-01 -4.698460e-01 3.420200e-01
    outer loop
      vertex -3.944864e+01 -2.277568e+01 6.616450e+00
      vertex -2.138531e+01 -3.704045e+01 3.000000e+01
      vertex -4.277062e+01 0.000000e+00 3.000000e+01
    endloop
  endfacet
  facet normal -8.137980e-01 -4.698460e-01 3.420200e-01
    outer loop
      vertex -3.944864e+01 -2.277568e+01 6.616450e+00
      vertex -4.277062e+01 0.000000e+00 3.000000e+01
      vertex -4.555136e+01 0.000000e+00 2.338355e+01
    endloop
  endfacet
  facet normal -4.698460e-01 8.137980e-01 -3.420200e-01
    outer loop
      vertex 0.000000e+00 4.555136e+01 6.616450e+00
      vertex 0.000000e+00 4.277062e+01 0.000000e+00
      vertex -2.277568e+01 3.944864e+01 2.338355e+01
    endloop
  endfacet
  facet normal -4.698460e-01 8.137980e-01 -3.420200e-01
    outer loop
      vertex -2.277568e+01 3.944864e+01 2.338355e+01
      vertex 0.000000e+00 4.277062e+01 0.000000e+00
      vertex -3.704045e+01 2.138531e+01 0.000000e+00
    endloop
  endfacet
  facet normal -4.698460e-01 8.137980e-01 -3.420200e-01
    outer loop
      vertex -2.277568e+01 3.944864e+01 2.338355e+01
      vertex -3.704045e+01 2.138531e+01 0.000000e+00
      vertex -3.944864e+01 2.277568e+01 6.616450e+00
    endloop
  endfacet
  facet normal -4.698460e-01 -8.137980e-01 -3.420200e-01
    outer loop
      vertex -3.704045e+01 -2.138531e+01 0.000000e+00
      vertex 0.000000e+00 -4.277062e+01 0.000000e+00
      vertex 0.000000e+00 -4.555136e+01 6.616450e+00
    endloop
  endfacet
  facet normal -4.698460e-01 -8.137980e-01 -3.420200e-01
    outer loop
      vertex -3.944864e+01 -2.277568e+01 6.616450e+00
      vertex -3.704045e+01 -2.138531e+01 0.000000e+00
      vertex -2.277568e+01 -3.944864e+01 2.338355e+01
    endloop
  endfacet
  facet normal -4.698460e-01 -8.137980e-01 -3.420200e-01
    outer loop
      vertex -2.277568e+01 -3.944864e+01 2.338355e+01
      vertex -3.704045e+01 -2.138531e+01 0.000000e+00
      vertex 0.000000e+00 -4.555136e+01 6.616450e+00
    endloop
  endfacet
  facet normal 0.000000e+00 0.000000e+00 -1.000000e+00
    outer loop
      vertex -1.321894e+01 2.969023e+01 0.000000e+00
      vertex -3.704045e+01 2.138531e+01 0.000000e+00
      vertex 0.000000e+00 4.277062e+01 0.000000e+00
    endloop
  endfacet
  facet normal -0.000000e+00 -0.000000e+00 -1.000000e+00
    outer loop
      vertex 1.910302e+01 2.629305e+01 0.000000e+00
      vertex 0.000000e+00 4.277062e+01 0.000000e+00
      vertex 3.704045e+01 2.138531e+01 0.000000e+00
    endloop
  endfacet
  facet normal 0.000000e+00 0.000000e+00 -1.000000e+00
    outer loop
      vertex 3.232196e+01 -3.397175e+00 0.000000e+00
      vertex 3.704045e+01 2.138531e+01 0.000000e+00
      vertex 3.704045e+01 -2.138531e+01 0.000000e+00
    endloop
  endfacet
  facet normal 0.000000e+00 0.000000e+00 -1.000000e+00
    outer loop
      vertex -3.704045e+01 -2.138531e+01 0.000000e+00
      vertex -3.704045e+01 2.138531e+01 0.000000e+00
      vertex -3.232196e+01 3.397175e+00 0.000000e+00
    endloop
  endfacet
  facet normal 0.000000e+00 0.000000e+00 -1.000000e+00
    outer loop
      vertex -3.704045e+01 -2.138531e+01 0.000000e+00
      vertex -3.232196e+01 3.397175e+00 0.000000e+00
      vertex -3.232196e+01 -3.397175e+00 0.000000e+00
    endloop
  endfacet
  facet normal 0.000000e+00 0.000000e+00 -1.000000e+00
    outer loop
      vertex -3.704045e+01 -2.138531e+01 0.000000e+00
      vertex -3.232196e+01 -3.397175e+00 0.000000e+00
      vertex -3.090934e+01 -1.004305e+01 0.000000e+00
    endloop
  endfacet
  facet normal 0.000000e+00 0.000000e+00 -1.000000e+00
    outer loop
      vertex -3.704045e+01 -2.138531e+01 0.000000e+00
      vertex -3.090934e+01 -1.004305e+01 0.000000e+00
      vertex -2.814583e+01 -1.625000e+01 0.000000e+00
    endloop
  endfacet
  facet normal 0.000000e+00 0.000000e+00 -1.000000e+00
    outer loop
      vertex -3.704045e+01 -2.138531e+01 0.000000e+00
      vertex -2.814583e+01 -1.625000e+01 0.000000e+00
      vertex -2.415221e+01 -2.174674e+01 0.000000e+00
    endloop
  endfacet
  facet normal 0.000000e+00 0.000000e+00 -1.000000e+00
    outer loop
      vertex -3.704045e+01 -2.138531e+01 0.000000e+00
      vertex -2.415221e+01 -2.174674e+01 0.000000e+00
      vertex -1.910302e+01 -2.629305e+01 0.000000e+00
    endloop
  endfacet
  facet normal 0.000000e+00 0.000000e+00 -1.000000e+00
    outer loop
      vertex -3.704045e+01 -2.138531e+01 0.000000e+00
      vertex -1.910302e+01 -2.629305e+01 0.000000e+00
      vertex 0.000000e+00 -4.277062e+01 0.000000e+00
    endloop
  endfacet
  facet normal 0.000000e+00 0.000000e+00 -1.000000e+00
    outer loop
      vertex -6.757130e+00 -3.178980e+01 0.000000e+00
      vertex 0.000000e+00 -4.277062e+01 0.000000e+00
      vertex -1.321894e+01 -2.969023e+01 0.000000e+00
    endloop
  endfacet
  facet normal 0.000000e+00 0.000000e+00 -1.000000e+00
    outer loop
      vertex 0.000000e+00 -3.250000e+01 0.000000e+00
      vertex 0.000000e+00 -4.277062e+01 0.000000e+00
      vertex -6.757130e+00 -3.178980e+01 0.000000e+00
    endloop
  endfacet
  facet normal 0.000000e+00 0.000000e+00 -1.000000e+00
    outer loop
      vertex 6.757130e+00 -3.178980e+01 0.000000e+00
      vertex 0.000000e+00 -4.277062e+01 0.000000e+00
      vertex 0.000000e+00 -3.250000e+01 0.000000e+00
    endloop
  endfacet
  facet normal 0.000000e+00 0.000000e+00 -1.000000e+00
    outer loop
      vertex 1.910302e+01 -2.629305e+01 0.000000e+00
      vertex 3.704045e+01 -2.138531e+01 0.000000e+00
      vertex 1.321894e+01 -2.969023e+01 0.000000e+00
    endloop
  endfacet
  facet normal 0.000000e+00 0.000000e+00 -1.000000e+00
    outer loop
      vertex 0.000000e+00 -4.277062e+01 0.000000e+00
      vertex 6.757130e+00 -3.178980e+01 0.000000e+00
      vertex 1.321894e+01 -2.969023e+01 0.000000e+00
    endloop
  endfacet
  facet normal 0.000000e+00 0.000000e+00 -1.000000e+00
    outer loop
      vertex 0.000000e+00 -4.277062e+01 0.000000e+00
      vertex 1.321894e+01 -2.969023e+01 0.000000e+00
      vertex 3.704045e+01 -2.138531e+01 0.000000e+00
    endloop
  endfacet
  facet normal 0.000000e+00 0.000000e+00 -1.000000e+00
    outer loop
      vertex 2.814583e+01 1.625000e+01 0.000000e+00
      vertex 3.704045e+01 2.138531e+01 0.000000e+00
      vertex 3.090934e+01 1.004305e+01 0.000000e+00
    endloop
  endfacet
  facet normal 0.000000e+00 0.000000e+00 -1.000000e+00
    outer loop
      vertex 3.232196e+01 3.397175e+00 0.000000e+00
      vertex 3.704045e+01 2.138531e+01 0.000000e+00
      vertex 3.232196e+01 -3.397175e+00 0.000000e+00
    endloop
  endfacet
  facet normal 0.000000e+00 0.000000e+00 -1.000000e+00
    outer loop
      vertex 1.910302e+01 -2.629305e+01 0.000000e+00
      vertex 2.415221e+01 -2.174674e+01 0.000000e+00
      vertex 3.704045e+01 -2.138531e+01 0.000000e+00
    endloop
  endfacet
  facet normal 0.000000e+00 0.000000e+00 -1.000000e+00
    outer loop
      vertex 3.090934e+01 1.004305e+01 0.000000e+00
      vertex 3.704045e+01 2.138531e+01 0.000000e+00
      vertex 3.232196e+01 3.397175e+00 0.000000e+00
    endloop
  endfacet
  facet normal 0.000000e+00 0.000000e+00 -1.000000e+00
    outer loop
      vertex 2.415221e+01 -2.174674e+01 0.000000e+00
      vertex 2.814583e+01 -1.625000e+01 0.000000e+00
      vertex 3.704045e+01 -2.138531e+01 0.000000e+00
    endloop
  endfacet
  facet normal 0.000000e+00 0.000000e+00 -1.000000e+00
    outer loop
      vertex 2.814583e+01 -1.625000e+01 0.000000e+00
      vertex 3.090934e+01 -1.004305e+01 0.000000e+00
      vertex 3.704045e+01 -2.138531e+01 0.000000e+00
    endloop
  endfacet
  facet normal 0.000000e+00 0.000000e+00 -1.000000e+00
    outer loop
      vertex 3.090934e+01 -1.004305e+01 0.000000e+00
      vertex 3.232196e+01 -3.397175e+00 0.000000e+00
      vertex 3.704045e+01 -2.138531e+01 0.000000e+00
    endloop
  endfacet
  facet normal 0.000000e+00 0.000000e+00 -1.000000e+00
    outer loop
      vertex 0.000000e+00 3.250000e+01 0.000000e+00
      vertex 0.000000e+00 4.277062e+01 0.000000e+00
      vertex 6.757130e+00 3.178980e+01 0.000000e+00
    endloop
  endfacet
  facet normal -0.000000e+00 -0.000000e+00 -1.000000e+00
    outer loop
      vertex 1.321894e+01 2.969023e+01 0.000000e+00
      vertex 0.000000e+00 4.277062e+01 0.000000e+00
      vertex 1.910302e+01 2.629305e+01 0.000000e+00
    endloop
  endfacet
  facet normal 0.000000e+00 0.000000e+00 -1.000000e+00
    outer loop
      vertex 2.814583e+01 1.625000e+01 0.000000e+00
      vertex 2.415221e+01 2.174674e+01 0.000000e+00
      vertex 3.704045e+01 2.138531e+01 0.000000e+00
    endloop
  endfacet
  facet normal -0.000000e+00 -0.000000e+00 -1.000000e+00
    outer loop
      vertex 2.415221e+01 2.174674e+01 0.000000e+00
      vertex 1.910302e+01 2.629305e+01 0.000000e+00
      vertex 3.704045e+01 2.138531e+01 0.000000e+00
    endloop
  endfacet
  facet normal -0.000000e+00 -0.000000e+00 -1.000000e+00
    outer loop
      vertex 6.757130e+00 3.178980e+01 0.000000e+00
      vertex 0.000000e+00 4.277062e+01 0.000000e+00
      vertex 1.321894e+01 2.969023e+01 0.000000e+00
    endloop
  endfacet
  facet normal 0.000000e+00 0.000000e+00 -1.000000e+00
    outer loop
      vertex -3.090934e+01 1.004305e+01 0.000000e+00
      vertex -3.704045e+01 2.138531e+01 0.000000e+00
      vertex -2.814583e+01 1.625000e+01 0.000000e+00
    endloop
  endfacet
  facet normal 0.000000e+00 0.000000e+00 -1.000000e+00
    outer loop
      vertex 0.000000e+00 3.250000e+01 0.000000e+00
      vertex -6.757130e+00 3.178980e+01 0.000000e+00
      vertex 0.000000e+00 4.277062e+01 0.000000e+00
    endloop
  endfacet
  facet normal 0.000000e+00 0.000000e+00 -1.000000e+00
    outer loop
      vertex -6.757130e+00 3.178980e+01 0.000000e+00
      vertex -1.321894e+01 2.969023e+01 0.000000e+00
      vertex 0.000000e+00 4.277062e+01 0.000000e+00
    endloop
  endfacet
  facet normal 0.000000e+00 0.000000e+00 -1.000000e+00
    outer loop
      vertex -2.415221e+01 2.174674e+01 0.000000e+00
      vertex -3.704045e+01 2.138531e+01 0.000000e+00
      vertex -1.910302e+01 2.629305e+01 0.000000e+00
    endloop
  endfacet
  facet normal 0.000000e+00 0.000000e+00 -1.000000e+00
    outer loop
      vertex -2.814583e+01 1.625000e+01 0.000000e+00
      vertex -3.704045e+01 2.138531e+01 0.000000e+00
      vertex -2.415221e+01 2.174674e+01 0.000000e+00
    endloop
  endfacet
  facet normal 0.000000e+00 0.000000e+00 -1.000000e+00
    outer loop
      vertex -3.232196e+01 3.397175e+00 0.000000e+00
      vertex -3.704045e+01 2.138531e+01 0.000000e+00
      vertex -3.090934e+01 1.004305e+01 0.000000e+00
    endloop
  endfacet
  facet normal 0.000000e+00 0.000000e+00 -1.000000e+00
    outer loop
      vertex -1.321894e+01 -2.969023e+01 0.000000e+00
      vertex 0.000000e+00 -4.277062e+01 0.000000e+00
      vertex -1.910302e+01 -2.629305e+01 0.000000e+00
    endloop
  endfacet
  facet normal 0.000000e+00 0.000000e+00 -1.000000e+00
    outer loop
      vertex -1.910302e+01 2.629305e+01 0.000000e+00
      vertex -3.704045e+01 2.138531e+01 0.000000e+00
      vertex -1.321894e+01 2.969023e+01 0.000000e+00
    endloop
  endfacet
  facet normal 0.000000e+00 0.000000e+00 1.000000e+00
    outer loop
      vertex -2.814583e+01 -1.625000e+01 3.000000e+01
      vertex -4.277062e+01 0.000000e+00 3.000000e+01
      vertex -2.138531e+01 -3.704045e+01 3.000000e+01
    endloop
  endfacet
  facet normal 0.000000e+00 0.000000e+00 1.000000e+00
    outer loop
      vertex 0.000000e+00 -3.250000e+01 3.000000e+01
      vertex -6.757130e+00 -3.178980e+01 3.000000e+01
      vertex -2.138531e+01 -3.704045e+01 3.000000e+01
    endloop
  endfacet
  facet normal 0.000000e+00 0.000000e+00 1.000000e+00
    outer loop
      vertex -3.232196e+01 3.397175e+00 3.000000e+01
      vertex -4.277062e+01 0.000000e+00 3.000000e+01
      vertex -3.232196e+01 -3.397175e+00 3.000000e+01
    endloop
  endfacet
  facet normal 0.000000e+00 0.000000e+00 1.000000e+00
    outer loop
      vertex -2.415221e+01 2.174674e+01 3.000000e+01
      vertex -1.910302e+01 2.629305e+01 3.000000e+01
      vertex -2.138531e+01 3.704045e+01 3.000000e+01
    endloop
  endfacet
  facet normal 0.000000e+00 0.000000e+00 1.000000e+00
    outer loop
      vertex -3.090934e+01 1.004305e+01 3.000000e+01
      vertex -4.277062e+01 0.000000e+00 3.000000e+01
      vertex -3.232196e+01 3.397175e+00 3.000000e+01
    endloop
  endfacet
  facet normal 0.000000e+00 0.000000e+00 1.000000e+00
    outer loop
      vertex -2.138531e+01 3.704045e+01 3.000000e+01
      vertex -4.277062e+01 0.000000e+00 3.000000e+01
      vertex -3.090934e+01 1.004305e+01 3.000000e+01
    endloop
  endfacet
  facet normal 0.000000e+00 0.000000e+00 1.000000e+00
    outer loop
      vertex -2.138531e+01 3.704045e+01 3.000000e+01
      vertex -3.090934e+01 1.004305e+01 3.000000e+01
      vertex -2.814583e+01 1.625000e+01 3.000000e+01
    endloop
  endfacet
  facet normal 0.000000e+00 0.000000e+00 1.000000e+00
    outer loop
      vertex -1.910302e+01 2.629305e+01 3.000000e+01
      vertex -1.321894e+01 2.969023e+01 3.000000e+01
      vertex -2.138531e+01 3.704045e+01 3.000000e+01
    endloop
  endfacet
  facet normal 0.000000e+00 0.000000e+00 1.000000e+00
    outer loop
      vertex -2.415221e+01 -2.174674e+01 3.000000e+01
      vertex -2.814583e+01 -1.625000e+01 3.000000e+01
      vertex -2.138531e+01 -3.704045e+01 3.000000e+01
    endloop
  endfacet
  facet normal 0.000000e+00 0.000000e+00 1.000000e+00
    outer loop
      vertex -1.321894e+01 2.969023e+01 3.000000e+01
      vertex -6.757130e+00 3.178980e+01 3.000000e+01
      vertex -2.138531e+01 3.704045e+01 3.000000e+01
    endloop
  endfacet
  facet normal 0.000000e+00 0.000000e+00 1.000000e+00
    outer loop
      vertex -1.910302e+01 -2.629305e+01 3.000000e+01
      vertex -2.415221e+01 -2.174674e+01 3.000000e+01
      vertex -2.138531e+01 -3.704045e+01 3.000000e+01
    endloop
  endfacet
  facet normal 0.000000e+00 0.000000e+00 1.000000e+00
    outer loop
      vertex 2.814583e+01 -1.625000e+01 3.000000e+01
      vertex 2.415221e+01 -2.174674e+01 3.000000e+01
      vertex 2.138531e+01 -3.704045e+01 3.000000e+01
    endloop
  endfacet
  facet normal 0.000000e+00 0.000000e+00 1.000000e+00
    outer loop
      vertex 2.138531e+01 3.704045e+01 3.000000e+01
      vertex -2.138531e+01 3.704045e+01 3.000000e+01
      vertex -6.757130e+00 3.178980e+01 3.000000e+01
    endloop
  endfacet
  facet normal 0.000000e+00 0.000000e+00 1.000000e+00
    outer loop
      vertex 2.138531e+01 3.704045e+01 3.000000e+01
      vertex -6.757130e+00 3.178980e+01 3.000000e+01
      vertex 0.000000e+00 3.250000e+01 3.000000e+01
    endloop
  endfacet
  facet normal 0.000000e+00 0.000000e+00 1.000000e+00
    outer loop
      vertex 2.138531e+01 3.704045e+01 3.000000e+01
      vertex 0.000000e+00 3.250000e+01 3.000000e+01
      vertex 6.757130e+00 3.178980e+01 3.000000e+01
    endloop
  endfacet
  facet normal 0.000000e+00 0.000000e+00 1.000000e+00
    outer loop
      vertex 2.138531e+01 3.704045e+01 3.000000e+01
      vertex 6.757130e+00 3.178980e+01 3.000000e+01
      vertex 1.321894e+01 2.969023e+01 3.000000e+01
    endloop
  endfacet
  facet normal 0.000000e+00 0.000000e+00 1.000000e+00
    outer loop
      vertex 3.090934e+01 1.004305e+01 3.000000e+01
      vertex 3.232196e+01 3.397175e+00 3.000000e+01
      vertex 4.277062e+01 0.000000e+00 3.000000e+01
    endloop
  endfacet
  facet normal 0.000000e+00 0.000000e+00 1.000000e+00
    outer loop
      vertex 2.138531e+01 3.704045e+01 3.000000e+01
      vertex 1.321894e+01 2.969023e+01 3.000000e+01
      vertex 1.910302e+01 2.629305e+01 3.000000e+01
    endloop
  endfacet
  facet normal 0.000000e+00 0.000000e+00 1.000000e+00
    outer loop
      vertex 2.138531e+01 3.704045e+01 3.000000e+01
      vertex 2.415221e+01 2.174674e+01 3.000000e+01
      vertex 4.277062e+01 0.000000e+00 3.000000e+01
    endloop
  endfacet
  facet normal 0.000000e+00 0.000000e+00 1.000000e+00
    outer loop
      vertex 2.138531e+01 3.704045e+01 3.000000e+01
      vertex 1.910302e+01 2.629305e+01 3.000000e+01
      vertex 2.415221e+01 2.174674e+01 3.000000e+01
    endloop
  endfacet
  facet normal 0.000000e+00 0.000000e+00 1.000000e+00
    outer loop
      vertex 2.415221e+01 2.174674e+01 3.000000e+01
      vertex 2.814583e+01 1.625000e+01 3.000000e+01
      vertex 4.277062e+01 0.000000e+00 3.000000e+01
    endloop
  endfacet
  facet normal 0.000000e+00 0.000000e+00 1.000000e+00
    outer loop
      vertex 1.910302e+01 -2.629305e+01 3.000000e+01
      vertex 1.321894e+01 -2.969023e+01 3.000000e+01
      vertex 2.138531e+01 -3.704045e+01 3.000000e+01
    endloop
  endfacet
  facet normal 0.000000e+00 0.000000e+00 1.000000e+00
    outer loop
      vertex 4.277062e+01 0.000000e+00 3.000000e+01
      vertex 3.232196e+01 3.397175e+00 3.000000e+01
      vertex 3.232196e+01 -3.397175e+00 3.000000e+01
    endloop
  endfacet
  facet normal 0.000000e+00 0.000000e+00 1.000000e+00
    outer loop
      vertex 4.277062e+01 0.000000e+00 3.000000e+01
      vertex 3.090934e+01 -1.004305e+01 3.000000e+01
      vertex 2.138531e+01 -3.704045e+01 3.000000e+01
    endloop
  endfacet
  facet normal 0.000000e+00 0.000000e+00 1.000000e+00
    outer loop
      vertex 4.277062e+01 0.000000e+00 3.000000e+01
      vertex 3.232196e+01 -3.397175e+00 3.000000e+01
      vertex 3.090934e+01 -1.004305e+01 3.000000e+01
    endloop
  endfacet
  facet normal 0.000000e+00 0.000000e+00 1.000000e+00
    outer loop
      vertex 3.090934e+01 -1.004305e+01 3.000000e+01
      vertex 2.814583e+01 -1.625000e+01 3.000000e+01
      vertex 2.138531e+01 -3.704045e+01 3.000000e+01
    endloop
  endfacet
  facet normal 0.000000e+00 0.000000e+00 1.000000e+00
    outer loop
      vertex 2.415221e+01 -2.174674e+01 3.000000e+01
      vertex 1.910302e+01 -2.629305e+01 3.000000e+01
      vertex 2.138531e+01 -3.704045e+01 3.000000e+01
    endloop
  endfacet
  facet normal 0.000000e+00 0.000000e+00 1.000000e+00
    outer loop
      vertex 2.138531e+01 -3.704045e+01 3.000000e+01
      vertex 6.757130e+00 -3.178980e+01 3.000000e+01
      vertex -2.138531e+01 -3.704045e+01 3.000000e+01
    endloop
  endfacet
  facet normal 0.000000e+00 0.000000e+00 1.000000e+00
    outer loop
      vertex 2.138531e+01 -3.704045e+01 3.000000e+01
      vertex 1.321894e+01 -2.969023e+01 3.000000e+01
      vertex 6.757130e+00 -3.178980e+01 3.000000e+01
    endloop
  endfacet
  facet normal 0.000000e+00 0.000000e+00 1.000000e+00
    outer loop
      vertex 6.757130e+00 -3.178980e+01 3.000000e+01
      vertex 0.000000e+00 -3.250000e+01 3.000000e+01
      vertex -2.138531e+01 -3.704045e+01 3.000000e+01
    endloop
  endfacet
  facet normal 0.000000e+00 0.000000e+00 1.000000e+00
    outer loop
      vertex -6.757130e+00 -3.178980e+01 3.000000e+01
      vertex -1.321894e+01 -2.969023e+01 3.000000e+01
      vertex -2.138531e+01 -3.704045e+01 3.000000e+01
    endloop
  endfacet
  facet normal 0.000000e+00 0.000000e+00 1.000000e+00
    outer loop
      vertex -1.321894e+01 -2.969023e+01 3.000000e+01
      vertex -1.910302e+01 -2.629305e+01 3.000000e+01
      vertex -2.138531e+01 -3.704045e+01 3.000000e+01
    endloop
  endfacet
  facet normal 0.000000e+00 0.000000e+00 1.000000e+00
    outer loop
      vertex -3.090934e+01 -1.004305e+01 3.000000e+01
      vertex -4.277062e+01 0.000000e+00 3.000000e+01
      vertex -2.814583e+01 -1.625000e+01 3.000000e+01
    endloop
  endfacet
  facet normal 0.000000e+00 0.000000e+00 1.000000e+00
    outer loop
      vertex -3.232196e+01 -3.397175e+00 3.000000e+01
      vertex -4.277062e+01 0.000000e+00 3.000000e+01
      vertex -3.090934e+01 -1.004305e+01 3.000000e+01
    endloop
  endfacet
  facet normal 0.000000e+00 0.000000e+00 1.000000e+00
    outer loop
      vertex -2.814583e+01 1.625000e+01 3.000000e+01
      vertex -2.415221e+01 2.174674e+01 3.000000e+01
      vertex -2.138531e+01 3.704045e+01 3.000000e+01
    endloop
  endfacet
  facet normal 0.000000e+00 0.000000e+00 1.000000e+00
    outer loop
      vertex 2.814583e+01 1.625000e+01 3.000000e+01
      vertex 3.090934e+01 1.004305e+01 3.000000e+01
      vertex 4.277062e+01 0.000000e+00 3.000000e+01
    endloop
  endfacet
  facet normal 0.000000e+00 9.396927e-01 3.420199e-01
    outer loop
      vertex 2.138531e+01 3.704045e+01 3.000000e+01
      vertex 2.277568e+01 3.944864e+01 2.338355e+01
      vertex -2.138531e+01 3.704045e+01 3.000000e+01
    endloop
  endfacet
  facet normal 0.000000e+00 9.396927e-01 3.420199e-01
    outer loop
      vertex -2.138531e+01 3.704045e+01 3.000000e+01
      vertex 2.277568e+01 3.944864e+01 2.338355e+01
      vertex 0.000000e+00 4.555136e+01 6.616450e+00
    endloop
  endfacet
  facet normal 0.000000e+00 9.396927e-01 3.420199e-01
    outer loop
      vertex -2.138531e+01 3.704045e+01 3.000000e+01
      vertex 0.000000e+00 4.555136e+01 6.616450e+00
      vertex -2.277568e+01 3.944864e+01 2.338355e+01
    endloop
  endfacet
  facet normal 0.000000e+00 -9.396927e-01 3.420199e-01
    outer loop
      vertex 0.000000e+00 -4.555136e+01 6.616450e+00
      vertex 2.277568e+01 -3.944864e+01 2.338355e+01
      vertex 2.138531e+01 -3.704045e+01 3.000000e+01
    endloop
  endfacet
  facet normal 0.000000e+00 -9.396927e-01 3.420199e-01
    outer loop
      vertex -2.277568e+01 -3.944864e+01 2.338355e+01
      vertex 0.000000e+00 -4.555136e+01 6.616450e+00
      vertex -2.138531e+01 -3.704045e+01 3.000000e+01
    endloop
  endfacet
  facet normal 0.000000e+00 -9.396927e-01 3.420199e-01
    outer loop
      vertex -2.138531e+01 -3.704045e+01 3.000000e+01
      vertex 0.000000e+00 -4.555136e+01 6.616450e+00
      vertex 2.138531e+01 -3.704045e+01 3.000000e+01
    endloop
  endfacet
  facet normal 4.698460e-01 8.137980e-01 -3.420200e-01
    outer loop
      vertex 2.277568e+01 3.944864e+01 2.338355e+01
      vertex 3.944864e+01 2.277568e+01 6.616450e+00
      vertex 0.000000e+00 4.555136e+01 6.616450e+00
    endloop
  endfacet
  facet normal 4.698460e-01 8.137980e-01 -3.420200e-01
    outer loop
      vertex 0.000000e+00 4.555136e+01 6.616450e+00
      vertex 3.944864e+01 2.277568e+01 6.616450e+00
      vertex 3.704045e+01 2.138531e+01 0.000000e+00
    endloop
  endfacet
  facet normal 4.698460e-01 8.137980e-01 -3.420200e-01
    outer loop
      vertex 0.000000e+00 4.555136e+01 6.616450e+00
      vertex 3.704045e+01 2.138531e+01 0.000000e+00
      vertex 0.000000e+00 4.277062e+01 0.000000e+00
    endloop
  endfacet
  facet normal 4.698460e-01 -8.137980e-01 -3.420200e-01
    outer loop
      vertex 0.000000e+00 -4.277062e+01 0.000000e+00
      vertex 3.704045e+01 -2.138531e+01 0.000000e+00
      vertex 3.944864e+01 -2.277568e+01 6.616450e+00
    endloop
  endfacet
  facet normal 4.698460e-01 -8.137980e-01 -3.420200e-01
    outer loop
      vertex 0.000000e+00 -4.555136e+01 6.616450e+00
      vertex 0.000000e+00 -4.277062e+01 0.000000e+00
      vertex 2.277568e+01 -3.944864e+01 2.338355e+01
    endloop
  endfacet
  facet normal 4.698460e-01 -8.137980e-01 -3.420200e-01
    outer loop
      vertex 2.277568e+01 -3.944864e+01 2.338355e+01
      vertex 0.000000e+00 -4.277062e+01 0.000000e+00
      vertex 3.944864e+01 -2.277568e+01 6.616450e+00
    endloop
  endfacet
  facet normal 9.396927e-01 0.000000e+00 -3.420199e-01
    outer loop
      vertex 3.704045e+01 2.138531e+01 0.000000e+00
      vertex 3.944864e+01 2.277568e+01 6.616450e+00
      vertex 4.555136e+01 0.000000e+00 2.338355e+01
    endloop
  endfacet
  facet normal 9.396927e-01 0.000000e+00 -3.420199e-01
    outer loop
      vertex 3.704045e+01 -2.138531e+01 0.000000e+00
      vertex 3.704045e+01 2.138531e+01 0.000000e+00
      vertex 3.944864e+01 -2.277568e+01 6.616450e+00
    endloop
  endfacet
  facet normal 9.396927e-01 0.000000e+00 -3.420199e-01
    outer loop
      vertex 3.944864e+01 -2.277568e+01 6.616450e+00
      vertex 3.704045e+01 2.138531e+01 0.000000e+00
      vertex 4.555136e+01 0.000000e+00 2.338355e+01
    endloop
  endfacet
  facet normal 1.000000e+00 0.000000e+00 0.000000e+00
    outer loop
      vertex -3.232196e+01 3.397175e+00 0.000000e+00
      vertex -3.232196e+01 3.397175e+00 3.000000e+01
      vertex -3.232196e+01 -3.397175e+00 3.000000e+01
    endloop
  endfacet
  facet normal 1.000000e+00 0.000000e+00 0.000000e+00
    outer loop
      vertex -3.232196e+01 -3.397175e+00 0.000000e+00
      vertex -3.232196e+01 3.397175e+00 0.000000e+00
      vertex -3.232196e+01 -3.397175e+00 3.000000e+01
    endloop
  endfacet
  facet normal 9.781476e-01 -2.079119e-01 0.000000e+00
    outer loop
      vertex -3.090934e+01 1.004305e+01 0.000000e+00
      vertex -3.090934e+01 1.004305e+01 3.000000e+01
      vertex -3.232196e+01 3.397175e+00 3.000000e+01
    endloop
  endfacet
  facet normal 9.781476e-01 -2.079119e-01 0.000000e+00
    outer loop
      vertex -3.232196e+01 3.397175e+00 0.000000e+00
      vertex -3.090934e+01 1.004305e+01 0.000000e+00
      vertex -3.232196e+01 3.397175e+00 3.000000e+01
    endloop
  endfacet
  facet normal 9.135453e-01 -4.067371e-01 0.000000e+00
    outer loop
      vertex -2.814583e+01 1.625000e+01 0.000000e+00
      vertex -2.814583e+01 1.625000e+01 3.000000e+01
      vertex -3.090934e+01 1.004305e+01 3.000000e+01
    endloop
  endfacet
  facet normal 9.135453e-01 -4.067371e-01 0.000000e+00
    outer loop
      vertex -3.090934e+01 1.004305e+01 0.000000e+00
      vertex -2.814583e+01 1.625000e+01 0.000000e+00
      vertex -3.090934e+01 1.004305e+01 3.000000e+01
    endloop
  endfacet
  facet normal 8.090171e-01 -5.877851e-01 0.000000e+00
    outer loop
      vertex -2.415221e+01 2.174674e+01 0.000000e+00
      vertex -2.415221e+01 2.174674e+01 3.000000e+01
      vertex -2.814583e+01 1.625000e+01 3.000000e+01
    endloop
  endfacet
  facet normal 8.090171e-01 -5.877851e-01 0.000000e+00
    outer loop
      vertex -2.814583e+01 1.625000e+01 0.000000e+00
      vertex -2.415221e+01 2.174674e+01 0.000000e+00
      vertex -2.814583e+01 1.625000e+01 3.000000e+01
    endloop
  endfacet
  facet normal 6.691307e-01 -7.431448e-01 0.000000e+00
    outer loop
      vertex -1.910302e+01 2.629305e+01 0.000000e+00
      vertex -1.910302e+01 2.629305e+01 3.000000e+01
      vertex -2.415221e+01 2.174674e+01 3.000000e+01
    endloop
  endfacet
  facet normal 6.691307e-01 -7.431448e-01 0.000000e+00
    outer loop
      vertex -2.415221e+01 2.174674e+01 0.000000e+00
      vertex -1.910302e+01 2.629305e+01 0.000000e+00
      vertex -2.415221e+01 2.174674e+01 3.000000e+01
    endloop
  endfacet
  facet normal 5.000002e-01 -8.660253e-01 0.000000e+00
    outer loop
      vertex -1.321894e+01 2.969023e+01 0.000000e+00
      vertex -1.321894e+01 2.969023e+01 3.000000e+01
      vertex -1.910302e+01 2.629305e+01 3.000000e+01
    endloop
  endfacet
  facet normal 5.000002e-01 -8.660253e-01 0.000000e+00
    outer loop
      vertex -1.910302e+01 2.629305e+01 0.000000e+00
      vertex -1.321894e+01 2.969023e+01 0.000000e+00
      vertex -1.910302e+01 2.629305e+01 3.000000e+01
    endloop
  endfacet
  facet normal 3.090169e-01 -9.510565e-01 0.000000e+00
    outer loop
      vertex -6.757130e+00 3.178980e+01 0.000000e+00
      vertex -6.757130e+00 3.178980e+01 3.000000e+01
      vertex -1.321894e+01 2.969023e+01 3.000000e+01
    endloop
  endfacet
  facet normal 3.090169e-01 -9.510565e-01 0.000000e+00
    outer loop
      vertex -1.321894e+01 2.969023e+01 0.000000e+00
      vertex -6.757130e+00 3.178980e+01 0.000000e+00
      vertex -1.321894e+01 2.969023e+01 3.000000e+01
    endloop
  endfacet
  facet normal 1.045280e-01 -9.945220e-01 0.000000e+00
    outer loop
      vertex 0.000000e+00 3.250000e+01 0.000000e+00
      vertex 0.000000e+00 3.250000e+01 3.000000e+01
      vertex -6.757130e+00 3.178980e+01 3.000000e+01
    endloop
  endfacet
  facet normal 1.045280e-01 -9.945220e-01 0.000000e+00
    outer loop
      vertex -6.757130e+00 3.178980e+01 0.000000e+00
      vertex 0.000000e+00 3.250000e+01 0.000000e+00
      vertex -6.757130e+00 3.178980e+01 3.000000e+01
    endloop
  endfacet
  facet normal -1.045280e-01 -9.945220e-01 -0.000000e+00
    outer loop
      vertex 6.757130e+00 3.178980e+01 0.000000e+00
      vertex 6.757130e+00 3.178980e+01 3.000000e+01
      vertex 0.000000e+00 3.250000e+01 3.000000e+01
    endloop
  endfacet
  facet normal -1.045280e-01 -9.945220e-01 -0.000000e+00
    outer loop
      vertex 0.000000e+00 3.250000e+01 0.000000e+00
      vertex 6.757130e+00 3.178980e+01 0.000000e+00
      vertex 0.000000e+00 3.250000e+01 3.000000e+01
    endloop
  endfacet
  facet normal -3.090169e-01 -9.510565e-01 -0.000000e+00
    outer loop
      vertex 1.321894e+01 2.969023e+01 0.000000e+00
      vertex 1.321894e+01 2.969023e+01 3.000000e+01
      vertex 6.757130e+00 3.178980e+01 3.000000e+01
    endloop
  endfacet
  facet normal -3.090169e-01 -9.510565e-01 -0.000000e+00
    outer loop
      vertex 6.757130e+00 3.178980e+01 0.000000e+00
      vertex 1.321894e+01 2.969023e+01 0.000000e+00
      vertex 6.757130e+00 3.178980e+01 3.000000e+01
    endloop
  endfacet
  facet normal -5.000002e-01 -8.660253e-01 -0.000000e+00
    outer loop
      vertex 1.910302e+01 2.629305e+01 0.000000e+00
      vertex 1.910302e+01 2.629305e+01 3.000000e+01
      vertex 1.321894e+01 2.969023e+01 3.000000e+01
    endloop
  endfacet
  facet normal -5.000002e-01 -8.660253e-01 -0.000000e+00
    outer loop
      vertex 1.321894e+01 2.969023e+01 0.000000e+00
      vertex 1.910302e+01 2.629305e+01 0.000000e+00
      vertex 1.321894e+01 2.969023e+01 3.000000e+01
    endloop
  endfacet
  facet normal -6.691307e-01 -7.431448e-01 -0.000000e+00
    outer loop
      vertex 2.415221e+01 2.174674e+01 0.000000e+00
      vertex 2.415221e+01 2.174674e+01 3.000000e+01
      vertex 1.910302e+01 2.629305e+01 3.000000e+01
    endloop
  endfacet
  facet normal -6.691307e-01 -7.431448e-01 -0.000000e+00
    outer loop
      vertex 1.910302e+01 2.629305e+01 0.000000e+00
      vertex 2.415221e+01 2.174674e+01 0.000000e+00
      vertex 1.910302e+01 2.629305e+01 3.000000e+01
    endloop
  endfacet
  facet normal -8.090171e-01 -5.877851e-01 0.000000e+00
    outer loop
      vertex 2.814583e+01 1.625000e+01 3.000000e+01
      vertex 2.415221e+01 2.174674e+01 3.000000e+01
      vertex 2.814583e+01 1.625000e+01 0.000000e+00
    endloop
  endfacet
  facet normal -8.090171e-01 -5.877851e-01 0.000000e+00
    outer loop
      vertex 2.814583e+01 1.625000e+01 0.000000e+00
      vertex 2.415221e+01 2.174674e+01 3.000000e+01
      vertex 2.415221e+01 2.174674e+01 0.000000e+00
    endloop
  endfacet
  facet normal -9.135453e-01 -4.067371e-01 0.000000e+00
    outer loop
      vertex 3.090934e+01 1.004305e+01 3.000000e+01
      vertex 2.814583e+01 1.625000e+01 3.000000e+01
      vertex 3.090934e+01 1.004305e+01 0.000000e+00
    endloop
  endfacet
  facet normal -9.135453e-01 -4.067371e-01 0.000000e+00
    outer loop
      vertex 3.090934e+01 1.004305e+01 0.000000e+00
      vertex 2.814583e+01 1.625000e+01 3.000000e+01
      vertex 2.814583e+01 1.625000e+01 0.000000e+00
    endloop
  endfacet
  facet normal -9.781476e-01 -2.079119e-01 0.000000e+00
    outer loop
      vertex 3.232196e+01 3.397175e+00 3.000000e+01
      vertex 3.090934e+01 1.004305e+01 3.000000e+01
      vertex 3.232196e+01 3.397175e+00 0.000000e+00
    endloop
  endfacet
  facet normal -9.781476e-01 -2.079119e-01 0.000000e+00
    outer loop
      vertex 3.232196e+01 3.397175e+00 0.000000e+00
      vertex 3.090934e+01 1.004305e+01 3.000000e+01
      vertex 3.090934e+01 1.004305e+01 0.000000e+00
    endloop
  endfacet
  facet normal -1.000000e+00 0.000000e+00 0.000000e+00
    outer loop
      vertex 3.232196e+01 3.397175e+00 3.000000e+01
      vertex 3.232196e+01 3.397175e+00 0.000000e+00
      vertex 3.232196e+01 -3.397175e+00 3.000000e+01
    endloop
  endfacet
  facet normal -1.000000e+00 0.000000e+00 0.000000e+00
    outer loop
      vertex 3.232196e+01 -3.397175e+00 3.000000e+01
      vertex 3.232196e+01 3.397175e+00 0.000000e+00
      vertex 3.232196e+01 -3.397175e+00 0.000000e+00
    endloop
  endfacet
  facet normal -9.781476e-01 2.079119e-01 0.000000e+00
    outer loop
      vertex 3.232196e+01 -3.397175e+00 3.000000e+01
      vertex 3.232196e+01 -3.397175e+00 0.000000e+00
      vertex 3.090934e+01 -1.004305e+01 3.000000e+01
    endloop
  endfacet
  facet normal -9.781476e-01 2.079119e-01 0.000000e+00
    outer loop
      vertex 3.090934e+01 -1.004305e+01 3.000000e+01
      vertex 3.232196e+01 -3.397175e+00 0.000000e+00
      vertex 3.090934e+01 -1.004305e+01 0.000000e+00
    endloop
  endfacet
  facet normal -9.135453e-01 4.067371e-01 0.000000e+00
    outer loop
      vertex 3.090934e+01 -1.004305e+01 3.000000e+01
      vertex 3.090934e+01 -1.004305e+01 0.000000e+00
      vertex 2.814583e+01 -1.625000e+01 3.000000e+01
    endloop
  endfacet
  facet normal -9.135453e-01 4.067371e-01 0.000000e+00
    outer loop
      vertex 2.814583e+01 -1.625000e+01 3.000000e+01
      vertex 3.090934e+01 -1.004305e+01 0.000000e+00
      vertex 2.814583e+01 -1.625000e+01 0.000000e+00
    endloop
  endfacet
  facet normal -8.090171e-01 5.877851e-01 0.000000e+00
    outer loop
      vertex 2.814583e+01 -1.625000e+01 3.000000e+01
      vertex 2.814583e+01 -1.625000e+01 0.000000e+00
      vertex 2.415221e+01 -2.174674e+01 3.000000e+01
    endloop
  endfacet
  facet normal -8.090171e-01 5.877851e-01 0.000000e+00
    outer loop
      vertex 2.415221e+01 -2.174674e+01 3.000000e+01
      vertex 2.814583e+01 -1.625000e+01 0.000000e+00
      vertex 2.415221e+01 -2.174674e+01 0.000000e+00
    endloop
  endfacet
  facet normal -6.691307e-01 7.431448e-01 0.000000e+00
    outer loop
      vertex 2.415221e+01 -2.174674e+01 3.000000e+01
      vertex 2.415221e+01 -2.174674e+01 0.000000e+00
      vertex 1.910302e+01 -2.629305e+01 3.000000e+01
    endloop
  endfacet
  facet normal -6.691307e-01 7.431448e-01 0.000000e+00
    outer loop
      vertex 1.910302e+01 -2.629305e+01 3.000000e+01
      vertex 2.415221e+01 -2.174674e+01 0.000000e+00
      vertex 1.910302e+01 -2.629305e+01 0.000000e+00
    endloop
  endfacet
  facet normal -5.000002e-01 8.660253e-01 0.000000e+00
    outer loop
      vertex 1.910302e+01 -2.629305e+01 3.000000e+01
      vertex 1.910302e+01 -2.629305e+01 0.000000e+00
      vertex 1.321894e+01 -2.969023e+01 3.000000e+01
    endloop
  endfacet
  facet normal -5.000002e-01 8.660253e-01 0.000000e+00
    outer loop
      vertex 1.321894e+01 -2.969023e+01 3.000000e+01
      vertex 1.910302e+01 -2.629305e+01 0.000000e+00
      vertex 1.321894e+01 -2.969023e+01 0.000000e+00
    endloop
  endfacet
  facet normal -3.090169e-01 9.510565e-01 0.000000e+00
    outer loop
      vertex 1.321894e+01 -2.969023e+01 3.000000e+01
      vertex 1.321894e+01 -2.969023e+01 0.000000e+00
      vertex 6.757130e+00 -3.178980e+01 3.000000e+01
    endloop
  endfacet
  facet normal -3.090169e-01 9.510565e-01 0.000000e+00
    outer loop
      vertex 6.757130e+00 -3.178980e+01 3.000000e+01
      vertex 1.321894e+01 -2.969023e+01 0.000000e+00
      vertex 6.757130e+00 -3.178980e+01 0.000000e+00
    endloop
  endfacet
  facet normal -1.045280e-01 9.945220e-01 0.000000e+00
    outer loop
      vertex 6.757130e+00 -3.178980e+01 3.000000e+01
      vertex 6.757130e+00 -3.178980e+01 0.000000e+00
      vertex 0.000000e+00 -3.250000e+01 3.000000e+01
    endloop
  endfacet
  facet normal -1.045280e-01 9.945220e-01 0.000000e+00
    outer loop
      vertex 0.000000e+00 -3.250000e+01 3.000000e+01
      vertex 6.757130e+00 -3.178980e+01 0.000000e+00
      vertex 0.000000e+00 -3.250000e+01 0.000000e+00
    endloop
  endfacet
  facet normal 1.045280e-01 9.945220e-01 0.000000e+00
    outer loop
      vertex 0.000000e+00 -3.250000e+01 3.000000e+01
      vertex 0.000000e+00 -3.250000e+01 0.000000e+00
      vertex -6.757130e+00 -3.178980e+01 3.000000e+01
    endloop
  endfacet
  facet normal 1.045280e-01 9.945220e-01 0.000000e+00
    outer loop
      vertex -6.757130e+00 -3.178980e+01 3.000000e+01
      vertex 0.000000e+00 -3.250000e+01 0.000000e+00
      vertex -6.757130e+00 -3.178980e+01 0.000000e+00
    endloop
  endfacet
  facet normal 3.090169e-01 9.510565e-01 0.000000e+00
    outer loop
      vertex -6.757130e+00 -3.178980e+01 3.000000e+01
      vertex -6.757130e+00 -3.178980e+01 0.000000e+00
      vertex -1.321894e+01 -2.969023e+01 3.000000e+01
    endloop
  endfacet
  facet normal 3.090169e-01 9.510565e-01 0.000000e+00
    outer loop
      vertex -1.321894e+01 -2.969023e+01 3.000000e+01
      vertex -6.757130e+00 -3.178980e+01 0.000000e+00
      vertex -1.321894e+01 -2.969023e+01 0.000000e+00
    endloop
  endfacet
  facet normal 5.000002e-01 8.660253e-01 0.000000e+00
    outer loop
      vertex -1.321894e+01 -2.969023e+01 3.000000e+01
      vertex -1.321894e+01 -2.969023e+01 0.000000e+00
      vertex -1.910302e+01 -2.629305e+01 3.000000e+01
    endloop
  endfacet
  facet normal 5.000002e-01 8.660253e-01 0.000000e+00
    outer loop
      vertex -1.910302e+01 -2.629305e+01 3.000000e+01
      vertex -1.321894e+01 -2.969023e+01 0.000000e+00
      vertex -1.910302e+01 -2.629305e+01 0.000000e+00
    endloop
  endfacet
  facet normal 6.691307e-01 7.431448e-01 0.000000e+00
    outer loop
      vertex -1.910302e+01 -2.629305e+01 3.000000e+01
      vertex -1.910302e+01 -2.629305e+01 0.000000e+00
      vertex -2.415221e+01 -2.174674e+01 3.000000e+01
    endloop
  endfacet
  facet normal 6.691307e-01 7.431448e-01 0.000000e+00
    outer loop
      vertex -2.415221e+01 -2.174674e+01 3.000000e+01
      vertex -1.910302e+01 -2.629305e+01 0.000000e+00
      vertex -2.415221e+01 -2.174674e+01 0.000000e+00
    endloop
  endfacet
  facet normal 8.090171e-01 5.877851e-01 0.000000e+00
    outer loop
      vertex -2.814583e+01 -1.625000e+01 3.000000e+01
      vertex -2.415221e+01 -2.174674e+01 3.000000e+01
      vertex -2.415221e+01 -2.174674e+01 0.000000e+00
    endloop
  endfacet
  facet normal 8.090171e-01 5.877851e-01 0.000000e+00
    outer loop
      vertex -2.814583e+01 -1.625000e+01 0.000000e+00
      vertex -2.814583e+01 -1.625000e+01 3.000000e+01
      vertex -2.415221e+01 -2.174674e+01 0.000000e+00
    endloop
  endfacet
  facet normal 9.135453e-01 4.067371e-01 0.000000e+00
    outer loop
      vertex -3.090934e+01 -1.004305e+01 3.000000e+01
      vertex -2.814583e+01 -1.625000e+01 3.000000e+01
      vertex -2.814583e+01 -1.625000e+01 0.000000e+00
    endloop
  endfacet
  facet normal 9.135453e-01 4.067371e-01 0.000000e+00
    outer loop
      vertex -3.090934e+01 -1.004305e+01 0.000000e+00
      vertex -3.090934e+01 -1.004305e+01 3.000000e+01
      vertex -2.814583e+01 -1.625000e+01 0.000000e+00
    endloop
  endfacet
  facet normal 9.781476e-01 2.079119e-01 0.000000e+00
    outer loop
      vertex -3.232196e+01 -3.397175e+00 3.000000e+01
      vertex -3.090934e+01 -1.004305e+01 3.000000e+01
      vertex -3.090934e+01 -1.004305e+01 0.000000e+00
    endloop
  endfacet
  facet normal 9.781476e-01 2.079119e-01 0.000000e+00
    outer loop
      vertex -3.232196e+01 -3.397175e+00 0.000000e+00
      vertex -3.232196e+01 -3.397175e+00 3.000000e+01
      vertex -3.090934e+01 -1.004305e+01 0.000000e+00
    endloop
  endfacet
  facet normal 8.137980e-01 4.698460e-01 3.420200e-01
    outer loop
      vertex 4.277062e+01 0.000000e+00 3.000000e+01
      vertex 4.555136e+01 0.000000e+00 2.338355e+01
      vertex 3.944864e+01 2.277568e+01 6.616450e+00
    endloop
  endfacet
  facet normal 8.137980e-01 4.698460e-01 3.420200e-01
    outer loop
      vertex 2.138531e+01 3.704045e+01 3.000000e+01
      vertex 4.277062e+01 0.000000e+00 3.000000e+01
      vertex 2.277568e+01 3.944864e+01 2.338355e+01
    endloop
  endfacet
  facet normal 8.137980e-01 4.698460e-01 3.420200e-01
    outer loop
      vertex 2.277568e+01 3.944864e+01 2.338355e+01
      vertex 4.277062e+01 0.000000e+00 3.000000e+01
      vertex 3.944864e+01 2.277568e+01 6.616450e+00
    endloop
  endfacet
  facet normal 8.137980e-01 -4.698460e-01 3.420200e-01
    outer loop
      vertex 2.277568e+01 -3.944864e+01 2.338355e+01
      vertex 3.944864e+01 -2.277568e+01 6.616450e+00
      vertex 4.555136e+01 0.000000e+00 2.338355e+01
    endloop
  endfacet
  facet normal 8.137980e-01 -4.698460e-01 3.420200e-01
    outer loop
      vertex 2.138531e+01 -3.704045e+01 3.000000e+01
      vertex 2.277568e+01 -3.944864e+01 2.338355e+01
      vertex 4.277062e+01 0.000000e+00 3.000000e+01
    endloop
  endfacet
  facet normal 8.137980e-01 -4.698460e-01 3.420200e-01
    outer loop
      vertex 4.277062e+01 0.000000e+00 3.000000e+01
      vertex 2.277568e+01 -3.944864e+01 2.338355e+01
      vertex 4.555136e+01 0.000000e+00 2.338355e+01
    endloop
  endfacet
endsolid Default
